<?xml version="1.0" encoding="utf-8"?>
<!-- Generator: Adobe Illustrator 16.0.0, SVG Export Plug-In . SVG Version: 6.00 Build 0)  -->
<!DOCTYPE svg PUBLIC "-//W3C//DTD SVG 1.1//EN" "http://www.w3.org/Graphics/SVG/1.1/DTD/svg11.dtd">
<svg version="1.1" id="Layer_1" xmlns="http://www.w3.org/2000/svg" xmlns:xlink="http://www.w3.org/1999/xlink" x="0px" y="0px"
	 width="43.2px" height="50.4px" viewBox="0 0 43.2 50.4" enable-background="new 0 0 43.2 50.4" xml:space="preserve">
<g>
	<path fill="#FFFFFF" d="M36.495,0.37h-36.1l3.666,3.587h13.627v30.207l3.587-3.625V3.957h13.61c4.344,0,7.896,3.862,7.896,8.583
		v16.916c0,4.721-3.553,8.582-7.896,8.582h-4.9V7.789l-3.588,3.625v26.624H4.062l-3.666,3.588h36.1c3.584,0,6.516-3.188,6.516-7.084
		V7.452C43.011,3.557,40.079,0.37,36.495,0.37z"/>
	<g>
		<path fill="#FFFFFF" d="M2.001,45.66H0.336v-0.855h4.26v0.855H2.931v4.395h-0.93V45.66L2.001,45.66z"/>
		<path fill="#FFFFFF" d="M7.236,45.66H5.571v-0.855h4.26v0.855H8.166v4.395h-0.93V45.66z"/>
		<path fill="#FFFFFF" d="M10.949,44.625h0.975v0.863h-0.975V44.625z M10.986,46.096h0.907v3.959h-0.907V46.096z"/>
		<path fill="#FFFFFF" d="M13.559,44.805h1.958c1.649,0,2.789,1.133,2.789,2.611v0.014c0,1.479-1.14,2.625-2.789,2.625h-1.958
			V44.805z M14.481,45.646v3.568h1.035c1.103,0,1.822-0.742,1.822-1.77V47.43c0-1.027-0.72-1.785-1.822-1.785h-1.035V45.646z"/>
		<path fill="#FFFFFF" d="M19.461,44.805h3.892v0.826h-2.969v1.365h2.633v0.824h-2.633v1.41h3.008v0.824h-3.931V44.805z"/>
		<path fill="#FFFFFF" d="M24.171,49.291l0.555-0.66c0.504,0.434,1.014,0.682,1.658,0.682c0.57,0,0.93-0.27,0.93-0.66v-0.016
			c0-0.375-0.209-0.576-1.185-0.801c-1.118-0.271-1.747-0.602-1.747-1.568v-0.016c0-0.9,0.75-1.521,1.792-1.521
			c0.765,0,1.372,0.232,1.905,0.66l-0.494,0.697c-0.474-0.354-0.945-0.541-1.426-0.541c-0.54,0-0.855,0.277-0.855,0.623v0.016
			c0,0.404,0.24,0.584,1.253,0.824c1.11,0.27,1.681,0.668,1.681,1.537v0.016c0,0.982-0.773,1.568-1.875,1.568
			C25.56,50.131,24.802,49.854,24.171,49.291z"/>
		<path fill="#FFFFFF" d="M29.413,44.805h0.924v5.25h-0.924V44.805z"/>
		<path fill="#FFFFFF" d="M31.544,47.445V47.43c0-1.469,1.125-2.715,2.707-2.715c0.916,0,1.479,0.256,2.018,0.713l-0.586,0.697
			c-0.404-0.344-0.802-0.563-1.469-0.563c-0.968,0-1.703,0.848-1.703,1.854v0.014c0,1.08,0.713,1.875,1.785,1.875
			c0.494,0,0.945-0.156,1.268-0.396v-0.982h-1.342v-0.803h2.234v2.205c-0.518,0.441-1.26,0.816-2.189,0.816
			C32.624,50.145,31.544,48.975,31.544,47.445z"/>
		<path fill="#FFFFFF" d="M37.694,44.805h0.854l2.813,3.631v-3.631h0.908v5.25h-0.772l-2.896-3.734v3.734h-0.906V44.805
			L37.694,44.805z"/>
	</g>
</g>
</svg>
